<?xml version="1.0" encoding="UTF-8" standalone="no"?>
<!-- Created with Inkscape (http://www.inkscape.org/) -->
<svg xmlns:rdf="http://www.w3.org/1999/02/22-rdf-syntax-ns#" xmlns="http://www.w3.org/2000/svg" height="192" width="768" version="1.1" xmlns:cc="http://creativecommons.org/ns#" xmlns:dc="http://purl.org/dc/elements/1.1/" viewBox="0 0 203.19999 50.800002">
 <defs>
  <filter id="c" style="color-interpolation-filters:sRGB" height="1.2017" width="1.144" y="-.10083" x="-.071985">
   <feGaussianBlur stdDeviation="0.34582486"/>
  </filter>
  <filter id="d" style="color-interpolation-filters:sRGB" height="1.2017" width="1.144" y="-.10083" x="-.071985">
   <feGaussianBlur stdDeviation="0.34582486"/>
  </filter>
 </defs>
 <metadata>
  <rdf:RDF>
   <cc:Work rdf:about="">
    <dc:format>image/svg+xml</dc:format>
    <dc:type rdf:resource="http://purl.org/dc/dcmitype/StillImage"/>
    <dc:title/>
   </cc:Work>
  </rdf:RDF>
 </metadata>
 <g>
  <rect height="16.933" width="16.933" y="33.867" x="16.94" fill="none"/>
  <circle cy="42.333" cx="25.4" r="2.3854" fill="#f55"/>
 </g>
 <g>
  <rect height="16.933" width="16.933" y="33.867" x="67.73" fill="none"/>
  <path fill-rule="evenodd" fill="#f55" d="m72.55 37.317v10.032h7.3091v-7.6847l-2.3494-2.3476zm3.4724 2.0343c0.29474-0.004 0.53486 0.20841 0.53024 0.46924v3.2738c0.01 0.62438-1.0537 0.62438-1.0442 0v-3.2738c-0.005-0.25517 0.22558-0.46526 0.51393-0.46924zm0.008 5.349c0.30037-0.00001 0.54386 0.21546 0.54385 0.48127-0.00001 0.26579-0.2435 0.48126-0.54385 0.48125-0.30034-0.00001-0.5438-0.21547-0.54381-0.48125-0.00001-0.26579 0.24346-0.48126 0.54381-0.48127z"/>
 </g>
 <g>
  <rect height="16.933" width="16.933" y="33.866" x="118.54" fill="none"/>
  <circle stroke-linejoin="round" stroke-width=".42333" stroke-linecap="round" stroke="#333" cy="45.584" cx="127" r="3.1958" fill="#b3b3b3"/>
  <path fill="#4d4d4d" d="m127 35.662c-1.4856 0-2.8264 0.62612-3.7796 1.6251l0.69903 0.78041c0.76329-0.83259 1.8578-1.3563 3.0806-1.3563 1.2227 0 2.316 0.52392 3.0792 1.3563l0.69903-0.7811c-0.95316-0.99858-2.293-1.6244-3.7783-1.6244zm0 1.8215c-1.0408 0-1.9763 0.4608-2.6182 1.1867l0.70245 0.78451c0.44685-0.56232 1.1366-0.92199 1.9158-0.92199 0.77896 0 1.4682 0.35924 1.9151 0.92131l0.70175-0.78383c-0.64191-0.72568-1.5763-1.1867-2.6169-1.1867zm-0.00055 1.8411c-0.47859 0.000052-0.86654 0.38801-0.8666 0.86659 0.00006 0.47858 0.38801 0.86654 0.8666 0.86659 0.47885 0.000335 0.8672-0.38774 0.86727-0.86659-0.00007-0.47885-0.38842-0.86692-0.86727-0.86659z"/>
 </g>
 <g>
  <rect height="16.933" width="16.933" y="33.866" x="101.6" fill="none"/>
  <circle stroke-linejoin="round" stroke-width=".42333" stroke-linecap="round" stroke="#000" cy="42.333" cx="110.07" r="6.1821" fill="#4d4d4d"/>
 </g>
 <g>
  <rect height="16.933" width="16.933" y="6.7139e-7" x="16.933" fill="none"/>
  <path fill="#2f7cf6" d="m25.345 4.409c-2.2663 0-4.3118 0.95518-5.766 2.4792l1.0664 1.1905c1.1644-1.2701 2.8341-2.0691 4.6996-2.0691 1.8652 0 3.5331 0.79927 4.6975 2.0691l1.067-1.1916c-1.454-1.5234-3.498-2.4781-5.764-2.4781zm0 2.7788c-1.5878 0-3.015 0.70297-3.9942 1.8103l1.0716 1.1968c0.68169-0.85784 1.734-1.4065 2.9226-1.4065 1.1883 0 2.2399 0.54803 2.9216 1.4055l1.07-1.196c-0.98-1.1072-2.405-1.8104-3.993-1.8104zm-0.000843 2.8087c-0.7301 0.000079-1.3219 0.59192-1.322 1.322 0.000076 0.7301 0.59192 1.3219 1.322 1.322 0.73051 0.000506 1.323-0.59151 1.3231-1.322-0.000088-0.73051-0.59255-1.3225-1.3231-1.322z"/>
  <path stroke-linejoin="round" d="m33.372 5.814-1.2226 0.46916m-0.21304-2.7781-0.9616 0.88891m1.8658 0.14967-1.1959 0.74359" stroke="#fc0" stroke-linecap="round" stroke-width=".91546" fill="none"/>
  <path stroke-linejoin="round" d="m18.222 10.294 1.2226-0.46916m0.21304 2.7781 0.96161-0.88891m-1.8658-0.14967 1.1959-0.74359" stroke="#fc0" stroke-linecap="round" stroke-width=".91546" fill="none"/>
 </g>
 <g>
  <rect height="16.933" width="16.933" y="16.934" x="118.53" fill="none"/>
  <path fill="#2f7cf6" d="m131.58 27.98c0.43826 0 0.88278-0.15026 1.2271-0.38818l-0.31304-0.56348c-0.25044 0.15652-0.50087 0.24418-0.78887 0.24418-0.51965 0-0.89531-0.30052-0.97044-0.87652h2.16c0.025-0.08139 0.0438-0.25044 0.0438-0.41948 0-0.97044-0.50087-1.6779-1.465-1.6779-0.83896 0-1.6341 0.70748-1.6341 1.847 0 1.152 0.76383 1.8344 1.7405 1.8344zm-0.85774-2.1913c0.0689-0.51339 0.39444-0.77635 0.76383-0.77635 0.45078 0 0.66365 0.30052 0.66365 0.77635h-1.4275zm-3.4332 2.1037h1.0644l1.1708-3.5061h-0.88278l-0.51339 1.7468c-0.0939 0.34435-0.19409 0.70748-0.28174 1.0644h-0.0313c-0.0939-0.35687-0.19409-0.72-0.28174-1.0644l-0.51339-1.7468h-0.92661l1.1958 3.5061zm-2.6965 0h0.91409v-3.5061h-0.91409v3.5061zm0.4633-4.0696c0.31304 0 0.5447-0.21287 0.5447-0.50087 0-0.30052-0.23165-0.50087-0.5447-0.50087-0.3193 0-0.55096 0.20035-0.55096 0.50087 0 0.288 0.23165 0.50087 0.55096 0.50087zm-3.9955 4.0696h2.8049v-0.77635h-1.8783v-3.8567h-0.92661v4.6331z"/>
 </g>
 <g>
  <rect height="16.933" width="16.933" y="16.934" x="50.8" fill="none"/>
  <path fill-rule="evenodd" fill="#b3b3b3" d="m66.255 22.687-1.9835 1.7696v1.8865l1.9835 1.7696zm-12.435-0.74333h9.1281c0.43973 0 0.79375 0.35401 0.79375 0.79375v5.3247c0 0.43974-0.35402 0.79375-0.79375 0.79375h-9.1281c-0.43974 0-0.79375-0.35401-0.79375-0.79375v-5.3247c0-0.43974 0.35401-0.79375 0.79375-0.79375z"/>
 </g>
 <g>
  <rect height="16.933" width="16.933" y="16.934" x="-.0010003" fill="none"/>
  <path fill="#b3b3b3" d="m6.921 20.894-0.94547 1.4769h-2.8228c-0.30452 0-0.54968 0.24516-0.54968 0.54968v6.4358c0 0.30452 0.24516 0.54968 0.54968 0.54968h10.627c0.3045 0 0.54967-0.24516 0.54967-0.54968v-6.4358c0-0.30452-0.24517-0.54968-0.54967-0.54968h-2.8228l-0.94545-1.4769h-3.0905zm1.5453 2.6793a2.5652 2.5652 0 0 1 2.5652 2.5652 2.5652 2.5652 0 0 1 -2.5652 2.5652 2.5652 2.5652 0 0 1 -2.5652 -2.5652 2.5652 2.5652 0 0 1 2.5652 -2.5652z"/>
 </g>
 <g>
  <rect height="16.933" width="16.933" y="16.934" x="16.933" fill="none"/>
  <path fill="#2f7cf6" d="m23.854 20.894-0.94547 1.4769h-2.8228c-0.30452 0-0.54968 0.24516-0.54968 0.54968v6.4358c0 0.30452 0.24516 0.54968 0.54968 0.54968h10.627c0.3045 0 0.54967-0.24516 0.54967-0.54968v-6.4358c0-0.30452-0.24517-0.54968-0.54967-0.54968h-2.8228l-0.94545-1.4769h-3.0905zm1.5453 2.6793a2.5652 2.5652 0 0 1 2.5652 2.5652 2.5652 2.5652 0 0 1 -2.5652 2.5652 2.5652 2.5652 0 0 1 -2.5652 -2.5652 2.5652 2.5652 0 0 1 2.5652 -2.5652z"/>
 </g>
 <g>
  <rect height="16.933" width="16.933" y="16.934" x="101.6" fill="none"/>
  <path fill="#b3b3b3" d="m114.65 27.98c0.43827 0 0.88279-0.15026 1.2271-0.38818l-0.31305-0.56348c-0.25043 0.15652-0.50087 0.24418-0.78887 0.24418-0.51965 0-0.8953-0.30052-0.97044-0.87652h2.16c0.025-0.08139 0.0438-0.25044 0.0438-0.41948 0-0.97044-0.50087-1.6779-1.465-1.6779-0.83896 0-1.6341 0.70748-1.6341 1.847 0 1.152 0.76383 1.8344 1.7405 1.8344zm-0.85774-2.1913c0.0689-0.51339 0.39444-0.77635 0.76383-0.77635 0.45078 0 0.66365 0.30052 0.66365 0.77635h-1.4275zm-3.4332 2.1037h1.0644l1.1708-3.5061h-0.88278l-0.51339 1.7468c-0.0939 0.34435-0.19409 0.70748-0.28174 1.0644h-0.0313c-0.0939-0.35687-0.19409-0.72-0.28174-1.0644l-0.51339-1.7468h-0.92661l1.1958 3.5061zm-2.6965 0h0.91409v-3.5061h-0.91409v3.5061zm0.46331-4.0696c0.31304 0 0.5447-0.21287 0.5447-0.50087 0-0.30052-0.23166-0.50087-0.5447-0.50087-0.31931 0-0.55096 0.20035-0.55096 0.50087 0 0.288 0.23165 0.50087 0.55096 0.50087zm-3.9955 4.0696h2.8049v-0.77635h-1.8783v-3.8567h-0.92661v4.6331z"/>
 </g>
 <g>
  <rect height="16.933" width="16.933" y="16.933" x="186.27" fill="none"/>
  <path fill="#b3b3b3" d="m194.68 21.342c-2.2663 0-4.3118 0.95518-5.766 2.4792l1.0664 1.1905c1.1644-1.2701 2.8341-2.0691 4.6996-2.0691 1.8652 0 3.5331 0.79927 4.6975 2.0691l1.0664-1.1916c-1.453-1.522-3.497-2.477-5.763-2.477zm0 2.7788c-1.5878 0-3.015 0.70297-3.9942 1.8103l1.0716 1.1968c0.68169-0.85784 1.734-1.4065 2.9226-1.4065 1.1883 0 2.2399 0.54803 2.9216 1.4055l1.07-1.196c-0.97924-1.1071-2.4046-1.8103-3.9921-1.8103zm-0.00084 2.8087c-0.7301 0.000079-1.3219 0.59192-1.322 1.322 0.00007 0.7301 0.59192 1.3219 1.322 1.322 0.73051 0.000506 1.323-0.59151 1.3231-1.322-0.00009-0.73051-0.59255-1.3225-1.3231-1.322z"/>
 </g>
 <g>
  <rect height="16.933" width="16.933" y="6.7139e-7" x="6.7139e-7" fill="none"/>
  <path fill="#2f7cf6" d="m8.411 4.409c-2.2663 0-4.3118 0.95518-5.766 2.4792l1.0664 1.1905c1.1644-1.2701 2.8341-2.0691 4.6996-2.0691 1.8652 0 3.5331 0.79927 4.6975 2.0691l1.0664-1.1916c-1.453-1.522-3.497-2.477-5.763-2.477zm0 2.7788c-1.5878 0-3.015 0.70297-3.9942 1.8103l1.0716 1.1968c0.6817-0.8579 1.734-1.4066 2.9226-1.4066 1.1883 0 2.2399 0.54803 2.9216 1.4055l1.07-1.196c-0.98-1.1072-2.405-1.8104-3.9925-1.8104zm-0.000843 2.8087c-0.7301 0.000079-1.3219 0.59192-1.322 1.322 0.000076 0.7301 0.59192 1.3219 1.322 1.322 0.73051 0.000506 1.323-0.59151 1.3231-1.322-0.000088-0.73051-0.59255-1.3225-1.3231-1.322z"/>
 </g>
 <g>
  <rect height="16.933" width="16.933" y="6.7139e-7" x="50.8" fill="none"/>
  <path fill="#00d455" d="m59.211 4.409c-2.2663 0-4.3118 0.95518-5.766 2.4792l1.0664 1.1905c1.1644-1.2701 2.8341-2.0691 4.6996-2.0691 1.8652 0 3.5331 0.79927 4.6975 2.0691l1.067-1.1916c-1.454-1.5234-3.498-2.4781-5.764-2.4781zm0 2.7788c-1.5878 0-3.015 0.70297-3.9942 1.8103l1.0716 1.1968c0.68169-0.85784 1.734-1.4065 2.9226-1.4065 1.1883 0 2.2399 0.54803 2.9216 1.4055l1.07-1.196c-0.98-1.1072-2.405-1.8104-3.993-1.8104zm-0.000843 2.8087c-0.7301 0.000079-1.3219 0.59192-1.322 1.322 0.000076 0.7301 0.59192 1.3219 1.322 1.322 0.73051 0.000506 1.323-0.59151 1.3231-1.322-0.000088-0.73051-0.59255-1.3225-1.3231-1.322z"/>
  <path stroke-linejoin="round" d="m67.239 5.814-1.2226 0.46916m-0.21304-2.7781-0.9616 0.88891m1.8658 0.14967-1.1959 0.74359" stroke="#fc0" stroke-linecap="round" stroke-width=".91546" fill="none"/>
  <path stroke-linejoin="round" d="m52.088 10.294 1.2226-0.46916m0.21304 2.7781 0.96161-0.88891m-1.8658-0.14967 1.1959-0.74359" stroke="#fc0" stroke-linecap="round" stroke-width=".91546" fill="none"/>
 </g>
 <g>
  <rect height="16.933" width="16.933" y="6.7139e-7" x="33.867" fill="none"/>
  <path fill="#00d455" d="m42.278 4.409c-2.2663 0-4.3118 0.95518-5.766 2.4792l1.0664 1.1905c1.1644-1.2701 2.8341-2.0691 4.6996-2.0691 1.8652 0 3.5331 0.79927 4.6975 2.0691l1.0664-1.1916c-1.453-1.522-3.497-2.477-5.763-2.477zm0 2.7788c-1.5878 0-3.015 0.70297-3.9942 1.8103l1.0716 1.1968c0.68169-0.85784 1.734-1.4065 2.9226-1.4065 1.1883 0 2.2399 0.54803 2.9216 1.4055l1.07-1.196c-0.98-1.1072-2.405-1.8104-3.993-1.8104zm-0.000843 2.8087c-0.7301 0.000079-1.3219 0.59192-1.322 1.322 0.000076 0.7301 0.59192 1.3219 1.322 1.322 0.73051 0.000506 1.323-0.59151 1.3231-1.322-0.000088-0.73051-0.59255-1.3225-1.3231-1.322z"/>
 </g>
 <g>
  <rect height="16.933" width="16.933" y="16.934" x="33.866" fill="none"/>
  <path fill="#2f7cf6" d="m40.788 20.894-0.94547 1.4769h-2.8228c-0.30452 0-0.54968 0.24516-0.54968 0.54968v6.4358c0 0.30452 0.24516 0.54968 0.54968 0.54968h10.627c0.3045 0 0.54967-0.24516 0.54967-0.54968v-6.4358c0-0.30452-0.24517-0.54968-0.54967-0.54968h-2.8228l-0.94545-1.4769h-3.0905zm1.5453 2.6793a2.5652 2.5652 0 0 1 2.5652 2.5652 2.5652 2.5652 0 0 1 -2.5652 2.5652 2.5652 2.5652 0 0 1 -2.5652 -2.5652 2.5652 2.5652 0 0 1 2.5652 -2.5652z"/>
  <path stroke-linejoin="round" d="m49.881 22.898-1.2226 0.46916m-0.21304-2.7781-0.9616 0.88891m1.8658 0.14966-1.1959 0.74359" stroke="#fc0" stroke-linecap="round" stroke-width=".91546" fill="none"/>
  <path stroke-linejoin="round" d="m34.608 28.965 1.2226-0.46916m0.21304 2.7781 0.96161-0.88891m-1.8658-0.14967 1.1959-0.74359" stroke="#fc0" stroke-linecap="round" stroke-width=".91546" fill="none"/>
 </g>
 <g>
  <rect height="16.933" width="16.933" y="16.934" x="67.733" fill="none"/>
  <path fill-rule="evenodd" fill="#2f7cf6" d="m83.189 22.687-1.9835 1.7696v1.8865l1.9835 1.7696zm-12.435-0.74333h9.1281c0.43973 0 0.79375 0.35401 0.79375 0.79375v5.3247c0 0.43974-0.35402 0.79375-0.79375 0.79375h-9.1281c-0.43974 0-0.79375-0.35401-0.79375-0.79375v-5.3247c0-0.43974 0.35401-0.79375 0.79375-0.79375z"/>
 </g>
 <g>
  <rect height="16.933" width="16.933" y="16.934" x="84.667" fill="none"/>
  <path fill-rule="evenodd" fill="#2f7cf6" d="m100.12 22.687-1.9835 1.7696v1.8865l1.9835 1.7696zm-12.435-0.74333h9.1281c0.43973 0 0.79375 0.35401 0.79375 0.79375v5.3247c0 0.43974-0.35402 0.79375-0.79375 0.79375h-9.1281c-0.43974 0-0.79375-0.35401-0.79375-0.79375v-5.3247c0-0.43974 0.35401-0.79375 0.79375-0.79375z"/>
  <path stroke-linejoin="round" d="m100.74 22.783-1.2023 0.5189m-0.32676-2.767-0.92435 0.92759m1.8704 0.07304-1.1644 0.792" stroke="#fc0" stroke-linecap="round" stroke-width=".91546" fill="none"/>
  <path stroke-linejoin="round" d="m85.527 28.782 1.1783-0.57127m0.44813 2.75 0.88266-0.96734m-1.8718 0.0093 1.1285-0.84244" stroke="#fc0" stroke-linecap="round" stroke-width=".91546" fill="none"/>
 </g>
 <g>
  <rect height="16.933" width="16.933" y="16.934" x="135.46" fill="none"/>
  <path fill="#2f7cf6" d="m148.51 27.98c0.43826 0 0.88279-0.15026 1.2271-0.38818l-0.31305-0.56348c-0.25043 0.15652-0.50087 0.24418-0.78887 0.24418-0.51965 0-0.89531-0.30052-0.97044-0.87652h2.16c0.025-0.08139 0.0438-0.25044 0.0438-0.41948 0-0.97044-0.50087-1.6779-1.465-1.6779-0.83896 0-1.6341 0.70748-1.6341 1.847 0 1.152 0.76383 1.8344 1.7405 1.8344zm-0.85774-2.1913c0.0689-0.51339 0.39444-0.77635 0.76383-0.77635 0.45078 0 0.66365 0.30052 0.66365 0.77635h-1.4275zm-3.4332 2.1037h1.0644l1.1708-3.5061h-0.88278l-0.5134 1.7468c-0.0939 0.34435-0.19408 0.70748-0.28173 1.0644h-0.0313c-0.0939-0.35687-0.19409-0.72-0.28174-1.0644l-0.5134-1.7468h-0.92661l1.1958 3.5061zm-2.6965 0h0.91409v-3.5061h-0.91409v3.5061zm0.46331-4.0696c0.31304 0 0.5447-0.21287 0.5447-0.50087 0-0.30052-0.23166-0.50087-0.5447-0.50087-0.31931 0-0.55096 0.20035-0.55096 0.50087 0 0.288 0.23165 0.50087 0.55096 0.50087zm-3.9955 4.0696h2.8049v-0.77635h-1.8783v-3.8567h-0.92661v4.6331z"/>
  <path stroke-linejoin="round" d="m151.5 22.522-1.2226 0.46916m-0.21303-2.7781-0.96161 0.88891m1.8658 0.14966-1.1959 0.74359" stroke="#fc0" stroke-linecap="round" stroke-width=".91546" fill="none"/>
  <path stroke-linejoin="round" d="m136.23 28.589 1.2226-0.46916m0.21303 2.7781 0.96161-0.88891m-1.8658-0.14967 1.1959-0.74359" stroke="#fc0" stroke-linecap="round" stroke-width=".91546" fill="none"/>
 </g>
 <g>
  <rect height="16.933" width="16.933" y="33.867" x="33.87" fill="none"/>
  <circle cy="42.333" cx="42.34" r="2.3854" fill="#f55"/>
  <path stroke-linejoin="round" d="m47.6 40.481-1.2226 0.46916m-0.21303-2.7781-0.96161 0.88891m1.8658 0.14966-1.1959 0.74359" stroke="#fc0" stroke-linecap="round" stroke-width=".91546" fill="none"/>
  <path stroke-linejoin="round" d="m37.07 44.186 1.2226-0.46916m0.21303 2.7781 0.96161-0.88891m-1.8658-0.14967 1.1959-0.74359" stroke="#fc0" stroke-linecap="round" stroke-width=".91546" fill="none"/>
 </g>
 <g>
  <rect height="16.933" width="16.933" y="33.867" x="84.67" fill="none"/>
  <path fill-rule="evenodd" fill="#f55" d="m89.48 37.317v10.032h7.3091v-7.6847l-2.3494-2.3476zm3.4724 2.0343c0.29474-0.004 0.53486 0.20841 0.53024 0.46924v3.2738c0.01 0.62438-1.0537 0.62438-1.0442 0v-3.2738c-0.005-0.25517 0.22558-0.46526 0.51393-0.46924zm0.008 5.349c0.30037-0.00001 0.54386 0.21546 0.54385 0.48127-0.00001 0.26579-0.2435 0.48126-0.54385 0.48125-0.30034-0.00001-0.5438-0.21547-0.54381-0.48125-0.00001-0.26579 0.24346-0.48126 0.54381-0.48127z"/>
  <path stroke-linejoin="round" d="m100.11 39.366-1.2226 0.46916m-0.21303-2.7781-0.96161 0.88891m1.8658 0.14966-1.1959 0.74359" stroke="#fc0" stroke-linecap="round" stroke-width=".91546" fill="none"/>
  <path stroke-linejoin="round" d="m86.16 45.83 1.2226-0.46916m0.21303 2.7781 0.96161-0.88891m-1.8658-0.14967 1.1959-0.74359" stroke="#fc0" stroke-linecap="round" stroke-width=".91546" fill="none"/>
 </g>
 <g>
  <rect height="16.933" width="16.933" y="33.867" x=".0000024414" fill="none"/>
  <circle cy="42.333" cx="8.46" r="2.3854" fill="#b3b3b3"/>
 </g>
 <g>
  <rect height="16.933" width="16.933" y="33.867" x="50.8" fill="none"/>
  <path fill-rule="evenodd" fill="#b3b3b3" d="m55.62 37.317v10.032h7.3091v-7.6847l-2.3494-2.3476zm3.4724 2.0343c0.29474-0.004 0.53486 0.20841 0.53024 0.46924v3.2738c0.01 0.62438-1.0537 0.62438-1.0442 0v-3.2738c-0.005-0.25517 0.22558-0.46526 0.51393-0.46924zm0.008 5.349c0.30037-0.00001 0.54386 0.21546 0.54385 0.48127-0.00001 0.26579-0.2435 0.48126-0.54385 0.48125-0.30034-0.00001-0.5438-0.21547-0.54381-0.48125-0.00001-0.26579 0.24346-0.48126 0.54381-0.48127z"/>
 </g>
 <g>
  <rect height="16.933" width="16.933" y="6.7139e-7" x="84.667" fill="none"/>
  <path fill="#f55" d="m93.078 4.409c-2.2663 0-4.3118 0.95518-5.766 2.4792l1.0664 1.1905c1.1644-1.2701 2.8341-2.0691 4.6996-2.0691 1.8652 0 3.5331 0.79927 4.6975 2.0691l1.067-1.1916c-1.454-1.5234-3.498-2.4781-5.764-2.4781zm0 2.7788c-1.5878 0-3.015 0.70297-3.9942 1.8103l1.0716 1.1968c0.68169-0.85784 1.734-1.4065 2.9226-1.4065 1.1883 0 2.2399 0.54803 2.9216 1.4055l1.07-1.196c-0.98-1.1072-2.405-1.8104-3.993-1.8104zm-0.000843 2.8087c-0.7301 0.000079-1.3219 0.59192-1.322 1.322 0.000076 0.7301 0.59192 1.3219 1.322 1.322 0.73051 0.000506 1.323-0.59151 1.3231-1.322-0.000088-0.73051-0.59255-1.3225-1.3231-1.322z"/>
  <path stroke-linejoin="round" d="m101.11 5.814-1.2226 0.46916m-0.21304-2.7781-0.9616 0.88891m1.8658 0.14967-1.1959 0.74359" stroke="#fc0" stroke-linecap="round" stroke-width=".91546" fill="none"/>
  <path stroke-linejoin="round" d="m85.955 10.294 1.2226-0.46916m0.21304 2.7781 0.96161-0.88891m-1.8658-0.14967 1.1959-0.74359" stroke="#fc0" stroke-linecap="round" stroke-width=".91546" fill="none"/>
 </g>
 <g>
  <rect height="16.933" width="16.933" y="6.7139e-7" x="67.733" fill="none"/>
  <path fill="#f55" d="m76.144 4.409c-2.2663 0-4.3118 0.95518-5.766 2.4792l1.0664 1.1905c1.1644-1.2701 2.8341-2.0691 4.6996-2.0691 1.8652 0 3.5331 0.79927 4.6975 2.0691l1.0664-1.1916c-1.453-1.522-3.497-2.477-5.763-2.477zm0 2.7788c-1.5878 0-3.015 0.70297-3.9942 1.8103l1.0716 1.1968c0.68169-0.85784 1.734-1.4065 2.9226-1.4065 1.1883 0 2.2399 0.54803 2.9216 1.4055l1.07-1.196c-0.98-1.1072-2.405-1.8104-3.992-1.8104zm-0.000843 2.8087c-0.7301 0.000079-1.3219 0.59192-1.322 1.322 0.000076 0.7301 0.59192 1.3219 1.322 1.322 0.73051 0.000506 1.323-0.59151 1.3231-1.322-0.000088-0.73051-0.59255-1.3225-1.3231-1.322z"/>
 </g>
 <g>
  <rect height="16.933" width="16.933" y="6.7139e-7" x="118.53" fill="none"/>
  <path fill="#00f0f0" d="m126.94 4.409c-2.2663 0-4.3118 0.95518-5.766 2.4792l1.0664 1.1905c1.1644-1.2701 2.8341-2.0691 4.6996-2.0691 1.8652 0 3.5331 0.79927 4.6975 2.0691l1.0664-1.1916c-1.46-1.5234-3.5-2.4781-5.77-2.4781zm0 2.7788c-1.5878 0-3.015 0.70297-3.9942 1.8103l1.0716 1.1968c0.68169-0.85784 1.734-1.4065 2.9226-1.4065 1.1883 0 2.2399 0.54803 2.9216 1.4055l1.07-1.196c-0.97-1.1072-2.4-1.8104-3.99-1.8104zm-0.00084 2.8087c-0.7301 0.000079-1.3219 0.59192-1.322 1.322 0.00007 0.7301 0.59192 1.3219 1.322 1.322 0.73051 0.000506 1.323-0.59151 1.3231-1.322-0.00009-0.73051-0.59255-1.3225-1.3231-1.322z"/>
  <path stroke-linejoin="round" d="m134.97 5.814-1.2226 0.46916m-0.21304-2.7781-0.9616 0.88891m1.8658 0.14967-1.1959 0.74359" stroke="#fc0" stroke-linecap="round" stroke-width=".91546" fill="none"/>
  <path stroke-linejoin="round" d="m119.82 10.294 1.2226-0.46916m0.21304 2.7781 0.96161-0.88891m-1.8658-0.14967 1.1959-0.74359" stroke="#fc0" stroke-linecap="round" stroke-width=".91546" fill="none"/>
 </g>
 <g>
  <rect height="16.933" width="16.933" y="6.7139e-7" x="101.6" fill="none"/>
  <path fill="#00f0f0" d="m110.01 4.409c-2.2663 0-4.3118 0.95518-5.766 2.4792l1.0664 1.1905c1.1644-1.2701 2.8341-2.0691 4.6996-2.0691 1.8652 0 3.5331 0.79927 4.6975 2.0691l1.0664-1.1916c-1.453-1.522-3.497-2.477-5.763-2.477zm0 2.7788c-1.5878 0-3.015 0.70297-3.9942 1.8103l1.0716 1.1968c0.68169-0.85784 1.734-1.4065 2.9226-1.4065 1.1883 0 2.2399 0.54803 2.9216 1.4055l1.07-1.196c-0.98-1.1072-2.4-1.8104-3.99-1.8104zm-0.00084 2.8087c-0.7301 0.000079-1.3219 0.59192-1.322 1.322 0.00007 0.7301 0.59192 1.3219 1.322 1.322 0.73051 0.000506 1.323-0.59151 1.3231-1.322-0.00009-0.73051-0.59255-1.3225-1.3231-1.322z"/>
 </g>
 <g>
  <rect height="16.933" width="16.933" y="6.7139e-7" x="152.4" fill="none"/>
  <path fill="#f0f" d="m160.81 4.409c-2.2663 0-4.3118 0.95518-5.766 2.4792l1.0664 1.1905c1.1644-1.2701 2.8341-2.0691 4.6996-2.0691 1.8652 0 3.5331 0.79927 4.6975 2.0691l1.0664-1.1916c-1.46-1.5234-3.5-2.4781-5.77-2.4781zm0 2.7788c-1.5878 0-3.015 0.70297-3.9942 1.8103l1.0716 1.1968c0.68169-0.85784 1.734-1.4065 2.9226-1.4065 1.1883 0 2.2399 0.54803 2.9216 1.4055l1.07-1.196c-0.98-1.1072-2.4-1.8104-3.99-1.8104zm-0.00084 2.8087c-0.7301 0.000079-1.3219 0.59192-1.322 1.322 0.00007 0.7301 0.59192 1.3219 1.322 1.322 0.73051 0.000506 1.323-0.59151 1.3231-1.322-0.00009-0.73051-0.59255-1.3225-1.3231-1.322z"/>
  <path stroke-linejoin="round" d="m168.84 5.814-1.2226 0.46916m-0.21304-2.7781-0.9616 0.88891m1.8658 0.14967-1.1959 0.74359" stroke="#fc0" stroke-linecap="round" stroke-width=".91546" fill="none"/>
  <path stroke-linejoin="round" d="m153.69 10.294 1.2226-0.46916m0.21304 2.7781 0.96161-0.88891m-1.8658-0.14967 1.1959-0.74359" stroke="#fc0" stroke-linecap="round" stroke-width=".91546" fill="none"/>
 </g>
 <g>
  <rect height="16.933" width="16.933" y="6.7139e-7" x="135.47" fill="none"/>
  <path fill="#f0f" d="m143.88 4.409c-2.2663 0-4.3118 0.95518-5.766 2.4792l1.0664 1.1905c1.1644-1.2701 2.8341-2.0691 4.6996-2.0691 1.8652 0 3.5331 0.79927 4.6975 2.0691l1.0664-1.1916c-1.453-1.522-3.497-2.477-5.763-2.477zm0 2.7788c-1.5878 0-3.015 0.70297-3.9942 1.8103l1.0716 1.1968c0.68169-0.85784 1.734-1.4065 2.9226-1.4065 1.1883 0 2.2399 0.54803 2.9216 1.4055l1.07-1.196c-0.98-1.1072-2.4-1.8104-3.99-1.8104zm-0.00084 2.8087c-0.7301 0.000079-1.3219 0.59192-1.322 1.322 0.00007 0.7301 0.59192 1.3219 1.322 1.322 0.73051 0.000506 1.323-0.59151 1.3231-1.322-0.00009-0.73051-0.59255-1.3225-1.3231-1.322z"/>
 </g>
 <g>
  <rect height="16.933" width="16.933" y="6.7139e-7" x="186.27" fill="none"/>
  <path fill="#fc0" d="m194.68 4.409c-2.2663 0-4.3118 0.95518-5.766 2.4792l1.0664 1.1905c1.1644-1.2701 2.8341-2.0691 4.6996-2.0691 1.8652 0 3.5331 0.79927 4.6975 2.0691l1.0664-1.1916c-1.46-1.5234-3.5-2.4781-5.77-2.4781zm0 2.7788c-1.5878 0-3.015 0.70297-3.9942 1.8103l1.0716 1.1968c0.68169-0.85784 1.734-1.4065 2.9226-1.4065 1.1883 0 2.2399 0.54803 2.9216 1.4055l1.07-1.196c-0.98-1.1072-2.4-1.8104-3.99-1.8104zm-0.00084 2.8087c-0.7301 0.000079-1.3219 0.59192-1.322 1.322 0.00007 0.7301 0.59192 1.3219 1.322 1.322 0.73051 0.000506 1.323-0.59151 1.3231-1.322-0.00009-0.73051-0.59255-1.3225-1.3231-1.322z"/>
  <path stroke-linejoin="round" d="m202.71 5.814-1.2226 0.46916m-0.21304-2.7781-0.9616 0.88891m1.8658 0.14967-1.1959 0.74359" stroke="#fc0" stroke-linecap="round" stroke-width=".91546" fill="none"/>
  <path stroke-linejoin="round" d="m187.56 10.294 1.2226-0.46916m0.21304 2.7781 0.96161-0.88891m-1.8658-0.14967 1.1959-0.74359" stroke="#fc0" stroke-linecap="round" stroke-width=".91546" fill="none"/>
 </g>
 <g>
  <rect height="16.933" width="16.933" y="6.7139e-7" x="169.33" fill="none"/>
  <path fill="#fc0" d="m177.74 4.409c-2.2663 0-4.3118 0.95518-5.766 2.4792l1.0664 1.1905c1.1644-1.2701 2.8341-2.0691 4.6996-2.0691 1.8652 0 3.5331 0.79927 4.6975 2.0691l1.0664-1.1916c-1.453-1.522-3.497-2.477-5.763-2.477zm0 2.7788c-1.5878 0-3.015 0.70297-3.9942 1.8103l1.0716 1.1968c0.68169-0.85784 1.734-1.4065 2.9226-1.4065 1.1883 0 2.2399 0.54803 2.9216 1.4055l1.07-1.196c-0.98-1.1072-2.4-1.8104-3.99-1.8104zm-0.00084 2.8087c-0.7301 0.000079-1.3219 0.59192-1.322 1.322 0.00007 0.7301 0.59192 1.3219 1.322 1.322 0.73051 0.000506 1.323-0.59151 1.3231-1.322-0.00009-0.73051-0.59255-1.3225-1.3231-1.322z"/>
 </g>
 <g>
  <rect height="16.933" width="16.933" y="16.934" x="169.33" fill="none"/>
  <path opacity=".5" d="m177.74 21.343c-2.2663 0-4.3118 0.95518-5.766 2.4792l1.0664 1.1905c1.1644-1.2701 2.8341-2.0691 4.6996-2.0691 1.8652 0 3.5331 0.79927 4.6975 2.0691l1.0664-1.1916c-1.4541-1.5234-3.4981-2.4781-5.7639-2.4781zm0 2.7788c-1.5878 0-3.015 0.70297-3.9942 1.8103l1.0716 1.1968c0.68169-0.85784 1.734-1.4065 2.9226-1.4065 1.1884 0 2.2399 0.54803 2.9216 1.4055l1.0705-1.1958c-0.97924-1.1071-2.4046-1.8103-3.9921-1.8103zm-0.00084 2.8087c-0.7301 0.000079-1.322 0.59192-1.322 1.322 0.00007 0.7301 0.59192 1.3219 1.322 1.322 0.73051 0.000506 1.323-0.59151 1.3231-1.322-0.00009-0.73051-0.59255-1.3225-1.3231-1.322z" filter="url(#d)"/>
  <path fill="#fff" d="m177.74 21.343c-2.2663 0-4.3118 0.95518-5.766 2.4792l1.0664 1.1905c1.1644-1.2701 2.8341-2.0691 4.6996-2.0691 1.8652 0 3.5331 0.79927 4.6975 2.0691l1.0664-1.1916c-1.4541-1.5234-3.4981-2.4781-5.7639-2.4781zm0 2.7788c-1.5878 0-3.015 0.70297-3.9942 1.8103l1.0716 1.1968c0.68169-0.85784 1.734-1.4065 2.9226-1.4065 1.1883 0 2.2399 0.54803 2.9216 1.4055l1.0705-1.1958c-0.97924-1.1071-2.4046-1.8103-3.9921-1.8103zm-0.00084 2.8087c-0.7301 0.000079-1.322 0.59192-1.322 1.322 0.00008 0.7301 0.59193 1.3219 1.322 1.322 0.73051 0.000506 1.323-0.59151 1.3231-1.322-0.00009-0.73051-0.59255-1.3225-1.3231-1.322z"/>
  <path stroke-linejoin="round" d="m185.77 22.748-1.2226 0.46916m-0.21303-2.7781-0.96161 0.88891m1.8658 0.14967-1.1959 0.74359" stroke="#fc0" stroke-linecap="round" stroke-width=".91546" fill="none"/>
  <path stroke-linejoin="round" d="m170.62 27.227 1.2226-0.46916m0.21304 2.7781 0.96161-0.88891m-1.8658-0.14967 1.1959-0.74359" stroke="#fc0" stroke-linecap="round" stroke-width=".91546" fill="none"/>
 </g>
 <g>
  <rect height="16.933" width="16.933" y="16.934" x="152.4" fill="none"/>
  <path opacity=".5" d="m160.81 21.343c-2.2663 0-4.3118 0.95518-5.766 2.4792l1.0664 1.1905c1.1644-1.2701 2.8341-2.0691 4.6996-2.0691 1.8652 0 3.5331 0.79927 4.6975 2.0691l1.0664-1.1916c-1.4541-1.5234-3.4981-2.4781-5.7639-2.4781zm0 2.7788c-1.5878 0-3.015 0.70297-3.9942 1.8103l1.0716 1.1968c0.68169-0.85784 1.734-1.4065 2.9226-1.4065 1.1884 0 2.2399 0.54803 2.9216 1.4055l1.0705-1.1958c-0.97924-1.1071-2.4046-1.8103-3.9921-1.8103zm-0.00084 2.8087c-0.7301 0.000079-1.322 0.59192-1.322 1.322 0.00007 0.7301 0.59192 1.3219 1.322 1.322 0.73051 0.000506 1.323-0.59151 1.3231-1.322-0.00009-0.73051-0.59255-1.3225-1.3231-1.322z" filter="url(#c)"/>
  <path fill="#fff" d="m160.81 21.343c-2.2663 0-4.3118 0.95518-5.766 2.4792l1.0664 1.1905c1.1644-1.2701 2.8341-2.0691 4.6996-2.0691 1.8652 0 3.5331 0.79927 4.6975 2.0691l1.0664-1.1916c-1.4541-1.5234-3.4981-2.4781-5.7639-2.4781zm0 2.7788c-1.5878 0-3.015 0.70297-3.9942 1.8103l1.0716 1.1968c0.68169-0.85784 1.734-1.4065 2.9226-1.4065 1.1884 0 2.2399 0.54803 2.9216 1.4055l1.0705-1.1958c-0.97924-1.1071-2.4046-1.8103-3.9921-1.8103zm-0.00085 2.8087c-0.7301 0.000078-1.322 0.59192-1.322 1.322 0.00007 0.7301 0.59192 1.3219 1.322 1.322 0.73051 0.000502 1.323-0.59151 1.3231-1.322-0.00009-0.73051-0.59255-1.3225-1.3231-1.322z"/>
 </g>
 <g>
  <rect height="16.933" width="16.933" y="33.867" x="169.33" fill="none"/>
  <path stroke-linejoin="round" d="m177.74 38.276c-2.2663 0-4.3118 0.95518-5.766 2.4792l1.0664 1.1905c1.1644-1.2701 2.8341-2.0691 4.6996-2.0691 1.8652 0 3.5331 0.79927 4.6975 2.0691l1.0664-1.1916c-1.4541-1.5234-3.4981-2.4781-5.7639-2.4781zm0 2.7788c-1.5878 0-3.015 0.70297-3.9942 1.8103l1.0716 1.1968c0.68169-0.85784 1.734-1.4065 2.9226-1.4065 1.1883 0 2.2399 0.54803 2.9216 1.4055l1.07-1.196c-0.97924-1.1071-2.4046-1.8103-3.9921-1.8103zm-0.00084 2.8087c-0.7301 0.000079-1.3219 0.59192-1.322 1.322 0.00007 0.7301 0.59192 1.3219 1.322 1.322 0.73051 0.000506 1.323-0.59151 1.3231-1.322-0.00009-0.73051-0.59255-1.3225-1.3231-1.322z" stroke="#4d4d4d" stroke-linecap="round" stroke-width=".26458" fill="#fff"/>
  <path stroke-linejoin="round" d="m185.77 39.681-1.2226 0.46916m-0.21304-2.7781-0.9616 0.88891m1.8658 0.14967-1.1959 0.74359" stroke="#fc0" stroke-linecap="round" stroke-width=".91546" fill="none"/>
  <path stroke-linejoin="round" d="m170.62 44.161 1.2226-0.46916m0.21304 2.7781 0.96161-0.88891m-1.8658-0.14967 1.1959-0.74359" stroke="#fc0" stroke-linecap="round" stroke-width=".91546" fill="none"/>
 </g>
 <g>
  <rect height="16.933" width="16.933" y="33.867" x="152.4" fill="none"/>
  <path stroke-linejoin="round" d="m160.81 38.276c-2.2663 0-4.3118 0.95518-5.766 2.4792l1.0664 1.1905c1.1644-1.2701 2.8341-2.0691 4.6996-2.0691 1.8652 0 3.5331 0.79927 4.6975 2.0691l1.0664-1.1916c-1.453-1.522-3.497-2.477-5.763-2.477zm0 2.7788c-1.5878 0-3.015 0.70297-3.9942 1.8103l1.0716 1.1968c0.68169-0.85784 1.734-1.4065 2.9226-1.4065 1.1883 0 2.2399 0.54803 2.9216 1.4055l1.07-1.196c-0.97924-1.1071-2.4046-1.8103-3.9921-1.8103zm-0.00084 2.8087c-0.7301 0.000079-1.3219 0.59192-1.322 1.322 0.00007 0.7301 0.59192 1.3219 1.322 1.322 0.73051 0.000506 1.323-0.59151 1.3231-1.322-0.00009-0.73051-0.59255-1.3225-1.3231-1.322z" stroke="#4d4d4d" stroke-linecap="round" stroke-width=".26458" fill="#fff"/>
 </g>
 <g>
  <rect height="16.933" width="16.933" y="33.867" x="135.46" fill="none"/>
  <circle stroke-linejoin="round" stroke-width=".42333" stroke-linecap="round" stroke="#333" cy="45.585" cx="143.93" r="3.1958" fill="#b3b3b3"/>
  <path fill="#4d4d4d" d="m148.71 40.212c0.3302 0 0.61912-0.11007 0.85302-0.266l-0.18345-0.33479c-0.18344 0.11924-0.37606 0.18803-0.60078 0.18803-0.43568 0-0.73836-0.28892-0.77964-0.77047h1.6372c0.0138-0.05962 0.0229-0.1651 0.0229-0.26599 0-0.71543-0.35771-1.197-1.0273-1.197-0.59161 0-1.1511 0.50906-1.1511 1.33 0 0.83009 0.54575 1.3162 1.2291 1.3162zm-0.71543-1.5455c0.0504-0.44485 0.3302-0.68792 0.64664-0.68792 0.36689 0 0.56409 0.25224 0.56409 0.68792h-1.2107zm-2.3566 1.5455c0.28434 0 0.54575-0.15134 0.73378-0.34396h0.0138l0.0459 0.28434h0.43109v-3.6551h-0.5274v0.93557l0.0229 0.41734c-0.20637-0.17427-0.38982-0.28434-0.67874-0.28434-0.5641 0-1.0823 0.50906-1.0823 1.33 0 0.83467 0.40817 1.3162 1.041 1.3162zm0.12383-0.43568c-0.39441 0-0.61913-0.31644-0.61913-0.8897 0-0.54575 0.28434-0.88053 0.63747-0.88053 0.18803 0 0.36689 0.05962 0.55492 0.22931v1.2337c-0.18344 0.21096-0.3623 0.30727-0.57326 0.30727zm-2.79 0.436c0.62371 0 1.1878-0.48154 1.1878-1.3162 0-0.84384-0.56409-1.33-1.1878-1.33s-1.1878 0.48613-1.1878 1.33c0 0.83467 0.56409 1.3162 1.1878 1.3162zm0-0.4311c-0.39441 0-0.64206-0.35313-0.64206-0.88512 0-0.53658 0.24765-0.89429 0.64206-0.89429 0.39899 0 0.64664 0.35772 0.64664 0.89429 0 0.53199-0.24765 0.88512-0.64664 0.88512zm-4.7699 0.37148h0.47696v-1.6693c0-0.30268-0.0413-0.73836-0.0642-1.0456h0.0183l0.26599 0.77964 0.59161 1.6097h0.3302l0.58702-1.6097 0.27058-0.77964h0.0183c-0.0275 0.30727-0.0688 0.74295-0.0688 1.0456v1.6693h0.4953v-3.3754h-0.61454l-0.60995 1.706c-0.078 0.22472-0.14217 0.45402-0.22014 0.68333h-0.0229c-0.078-0.2293-0.14675-0.45861-0.22472-0.68333l-0.61912-1.706h-0.60996v3.3754z"/>
 </g>
</svg>
